<svg id="Layer_1" data-name="Layer 1" xmlns="http://www.w3.org/2000/svg" viewBox="0 0 512 512"><title>forward-glyph</title><path d="M30.24,510.43c-17,0-30.24-13.78-30.24-31.36V32.93C0,15.35,13.28,1.57,30.25,1.57a32.73,32.73,0,0,1,16.3,4.49L383.39,229.12c10.07,5.81,16.08,15.86,16.08,26.88s-6,21.07-16.08,26.87L46.55,505.94a32.72,32.72,0,0,1-16.3,4.49Z" fill="#e0e0e0"/><path d="M450.06,499.51a61.94,61.94,0,0,1-61.94-61.93V74.42a61.94,61.94,0,0,1,123.88,0V437.58A61.94,61.94,0,0,1,450.06,499.51Z" fill="#e0e0e0"/></svg>